<?xml version="1.0" encoding="utf-8"?>
<!-- Generator: Adobe Illustrator 21.1.0, SVG Export Plug-In . SVG Version: 6.00 Build 0)  -->
<svg version="1.1" id="Layer_1" xmlns="http://www.w3.org/2000/svg" xmlns:xlink="http://www.w3.org/1999/xlink" x="0px" y="0px"
	 viewBox="0 0 200 50" style="enable-background:new 0 0 200 50;" xml:space="preserve">
<style type="text/css">
	.st0{fill:#FFFFFF;}
</style>
<g id="psYGKc_1_">
	<g>
		<path class="st0" d="M81.3,47.7c0-0.4,0-0.7,0-0.9c0.1-0.1,0.2-0.1,0.3-0.1c0.4,0,0.9,0,1.3,0c35.6,0,71.2,0,106.8,0
			c4.7,0,7.8-3.5,7.7-7.8c-0.1-9.3,0-18.6,0-28c0-2.8-0.9-5.1-3.3-6.5c-1-0.6-2.3-0.8-3.5-1.1c-0.6-0.1-1.2,0-1.8,0
			c-59.5,0-118.9,0-178.4,0c-3,0-5.4,0.9-6.8,3.6c-0.6,1.1-1,2.4-1,3.5c-0.1,9.7-0.1,19.4,0,29.1c0,4.1,3.1,7.1,7.3,7.1
			c16.5,0,33.1,0,49.6,0c0.4,0,0.9,0,1.4,0c0,0.4,0,0.7,0.1,1.1c-0.5,0-0.8,0-1.2,0c-16.6,0-33.1-0.1-49.7,0c-5,0-8.7-3.9-8.6-8.6
			c0-9.4,0-18.8,0-28.3C1.5,6.5,4,3.2,8,2.4c0.6-0.1,1.1-0.1,1.7-0.1c60.2,0,120.4,0,180.6,0c4.7,0,8.2,3.6,8.2,8.6
			c0,5.3,0,10.6,0,16c0,4.1,0,8.2,0,12.3c0,3.5-1.4,6.3-4.7,7.8c-1.2,0.5-2.6,0.7-3.9,0.8c-31.7,0-63.3,0-95,0c-4.1,0-8.3,0-12.4,0
			C82.2,47.7,81.8,47.7,81.3,47.7z"/>
		<path class="st0" d="M79,15.6c0.8,0,1.5,0,2.3,0c0,0.3,0.1,0.5,0.1,0.8c0,3.3,0.1,6.7,0,10c-0.1,5.3-3,8.8-8.2,9.4
			c-0.2,0-0.6,0.4-0.6,0.6c0,3.4,0,6.7,0,10.2c2,0,3.8,0,5.8,0c0,0.4,0.1,0.7,0.1,1.1c-4.7,0-9.4,0-14.1,0c-0.3-0.7-0.2-1.1,0.7-1
			c1.4,0,2.8,0,4.2,0c0.8,0,1-0.3,1-1c0-3,0-6,0-9c0-0.6-0.2-0.9-0.8-1c-4.9-0.8-7.7-3.9-7.9-8.9c-0.2-3.6,0-7.2,0-10.8
			c0-0.1,0-0.3,0.1-0.4c0.7,0,1.3,0,2.1,0c0,0.4,0,0.8,0.1,1.2c0.1,3.6,0,7.1,0.2,10.7c0.2,2.9,1.6,5.3,4.6,6.1
			c3.1,0.9,6.1,0.8,8.6-1.7c1.4-1.3,1.9-3.1,2-4.9C79,23.6,79,20.3,79,16.9C79,16.5,79,16.1,79,15.6z"/>
		<path class="st0" d="M24.5,25.4c0.4,0.2,0.8,0.3,1.1,0.5c1.9,0.9,3,2.4,3,4.5c0,2.1-1.1,3.5-2.9,4.4c-1.1,0.5-2.4,0.9-3.6,0.9
			c-3.5,0.1-7,0-10.5,0.1c-0.7,0-0.9-0.2-0.9-0.9c0-6.1,0-12.2,0-18.3c0-0.7,0.2-1,1-1c3.5,0,7.1,0,10.6,0c2.4,0,4.5,1.5,5.1,3.8
			c0.6,2.2-0.2,4.2-2.4,5.6C24.9,25.1,24.7,25.2,24.5,25.4z M13.1,33.9c3.3,0,6.5,0.1,9.7,0c2-0.1,3.5-2,3.5-3.8
			c-0.1-1.8-1.6-3.6-3.5-3.7c-3-0.1-6-0.1-9.1,0c-0.2,0-0.6,0.4-0.6,0.6C13.1,29.2,13.1,31.5,13.1,33.9z M13.1,17.3
			c0,2.6,0,4.9,0,7.4c3,0,5.9,0.1,8.7,0c1.9-0.1,3.5-1.9,3.4-3.7c0-1.9-1.6-3.5-3.6-3.6c-1.1-0.1-2.3,0-3.4,0
			C16.6,17.3,14.9,17.3,13.1,17.3z"/>
		<path class="st0" d="M36.5,35.7c0-6.8,0-13.4,0-20c0.1-0.1,0.1-0.1,0.2-0.1c3.6,0,7.1-0.2,10.7,0c5,0.3,7.7,5.8,5,9.8
			c-1,1.4-2.3,2.1-4.1,2.6c1.9,2.6,3.8,5,5.7,7.6c-1.6,0.2-2.7,0.3-3.6-1.2c-1.2-1.9-2.7-3.6-4-5.4c-0.4-0.5-0.8-0.7-1.4-0.7
			c-2,0-4,0-6.1,0c0,1,0,1.9,0,2.9c0,1.2,0,2.4,0,3.5c0,0.8-0.2,1.2-1.1,1.1C37.3,35.7,37,35.7,36.5,35.7z M38.8,26.5
			c2.9,0,5.6,0.1,8.4,0c0.8,0,1.6-0.5,2.3-1c1.5-1.1,2.1-3.1,1.5-4.8c-0.6-1.8-2.3-3.2-4.3-3.3c-2.1-0.1-4.2,0-6.2,0
			c-0.5,0-1,0-1.6,0C38.8,20.4,38.8,23.4,38.8,26.5z"/>
		<path class="st0" d="M90.6,15.7c0.8-0.3,1.2,0,1.5,0.6c3,4.3,6,8.7,9.1,13c0.3,0.4,0.5,0.7,0.9,1.3c1.3-1.8,2.5-3.5,3.7-5.2
			c2.1-3,4.2-6,6.3-9c0.4-0.6,0.8-0.9,1.5-0.6c0,0.3,0,0.6,0,1c0,6,0,12,0,18.1c0,0.2,0.1,0.4,0,0.6c-0.1,0.2-0.3,0.4-0.5,0.3
			c-0.2,0-0.5-0.2-0.6-0.3c-0.1-0.3-0.1-0.6-0.1-0.9c0-5.1,0-10.2,0-15.3c0-0.4,0-0.8,0-1.1c-0.1,0-0.2,0-0.3-0.1
			c-1.1,1.6-2.3,3.2-3.4,4.8c-2,2.8-3.9,5.6-5.9,8.4c-0.6,0.9-1.1,0.9-1.7,0c-2.9-4.2-5.9-8.4-8.8-12.7c-0.1-0.2-0.3-0.4-0.6-0.8
			c0,0.6-0.1,0.9-0.1,1.3c0,5.3,0,10.6,0,15.8c0,0.4,0.2,1-0.5,0.9c-0.2,0-0.5-0.3-0.6-0.5c-0.1-0.1,0-0.3,0-0.5
			c0-6.1,0-12.1,0-18.2C90.5,16.3,90.6,16,90.6,15.7z"/>
		<path class="st0" d="M174.1,25.9c0,1.8,0,3.5,0,5.1c0,0.9,0.1,1.9,0,2.8c-0.1,0.9,0.3,1,1.1,1c4.1,0,8.1,0,12.2,0
			c0.3,0,0.6,0,0.8,0c0.2,0,0.3,0.3,0.5,0.4c-0.2,0.2-0.3,0.3-0.5,0.5c0,0-0.1,0-0.2,0c-4.8,0-9.7,0-14.5,0c-0.1,0-0.2,0-0.4-0.1
			c0-0.3-0.1-0.7-0.1-1c0-6,0-11.9,0-17.9c0-0.9,0.2-1.1,1.1-1.1c4.4,0,8.8,0,13.2,0c0.1,0,0.2,0,0.3,0c0.3,0.1,0.5,0.3,0.8,0.4
			c-0.2,0.2-0.5,0.4-0.7,0.4c-0.8,0.1-1.7,0-2.5,0c-3.3,0-6.5,0-9.8,0c-0.4,0-0.7,0-1.1,0c0,2.9,0,5.6,0,8.5c0.5,0,0.9,0,1.2,0
			c3.4,0,6.8,0,10.2,0c0.3,0,0.6,0.3,0.9,0.4c-0.3,0.1-0.6,0.4-0.9,0.4c-3.4,0-6.9,0-10.3,0C175,25.9,174.6,25.9,174.1,25.9z"/>
		<path class="st0" d="M142.1,35.6c-0.8,0.3-1.2,0-1.5-0.6c-0.9-1.8-1.9-3.7-2.8-5.5c-0.3-0.5-0.6-0.7-1.2-0.7c-3.5,0-6.9,0-10.4,0
			c-0.4,0-0.9,0.3-1,0.7c-1,1.8-1.9,3.6-2.8,5.5c-0.3,0.7-0.7,1-1.6,0.7c0.3-0.5,0.5-1.1,0.8-1.6c2.9-5.8,5.9-11.5,8.8-17.3
			c0.1-0.1,0.1-0.3,0.2-0.4c0.3-0.3,0.6-0.6,0.9-0.6c0.3,0,0.7,0.3,0.8,0.6c1.4,2.7,2.8,5.4,4.1,8.1c1.7,3.4,3.4,6.8,5.2,10.2
			C141.8,34.8,141.9,35.2,142.1,35.6z M131.5,16.8c-1.9,3.8-3.7,7.4-5.6,11c3.8,0,7.4,0,11.1,0C135.2,24.2,133.4,20.6,131.5,16.8z"
			/>
		<path class="st0" d="M156.9,16.5c0,6.4,0,12.7,0,19c-1.1,0.3-1.2,0.3-1.2-0.8c0-5.6,0-11.2,0-16.8c0-0.4,0-0.8,0-1.3
			c-0.4,0-0.8-0.1-1.1-0.1c-2.3,0-4.6,0-7,0c-0.3,0-0.5-0.2-0.8-0.4c0.3-0.2,0.5-0.5,0.8-0.5c5.8,0,11.6,0,17.3,0
			c0.3,0,0.5,0.3,0.8,0.4c-0.3,0.1-0.6,0.4-0.8,0.4c-2.3,0-4.6,0-6.9,0C157.7,16.5,157.3,16.5,156.9,16.5z"/>
		<path class="st0" d="M66.8,12.4c0-0.9,0-1.8,0-2.7c0.7,0,1.4,0,2.1,0c0,0.9,0,1.8,0,2.7C68.2,12.4,67.5,12.4,66.8,12.4z"/>
		<path class="st0" d="M73.9,12.4c0-0.9,0-1.8,0-2.7c0.7,0,1.4,0,2.1,0c0,0.9,0,1.8,0,2.7C75.2,12.4,74.6,12.4,73.9,12.4z"/>
	</g>
</g>
</svg>
